<?xml version="1.0" encoding="utf-8"?>
<!-- Generator: Adobe Illustrator 15.0.2, SVG Export Plug-In . SVG Version: 6.00 Build 0)  -->
<!DOCTYPE svg PUBLIC "-//W3C//DTD SVG 1.1//EN" "http://www.w3.org/Graphics/SVG/1.1/DTD/svg11.dtd">
<svg version="1.1" id="svg2" xmlns:svg="http://www.w3.org/2000/svg"
	 xmlns="http://www.w3.org/2000/svg" xmlns:xlink="http://www.w3.org/1999/xlink" x="0px" y="0px" width="304px" height="49.667px"
	 viewBox="0 0 304 49.667" enable-background="new 0 0 304 49.667" xml:space="preserve">
<g id="layer1" transform="translate(-383.63, -431.591)">
	<g id="g3431" transform="translate(35.3919, 35.4596)">
		<path id="path3362" fill="#00054C" d="M361.324,433.037c2.012-0.379,3.872-2.062,3.872-4.197c0-4.023-3.47-5.48-7.014-5.48h-7.945
			c0.654,0.352,0.933,1.131,0.933,1.836v16.691c0,0.68-0.277,1.484-0.933,1.811h8.623c3.369,0,8.146-1.156,8.146-5.73
			C367.005,434.772,364.216,433.012,361.324,433.037z M355.367,425.193c0.681-0.074,0.931-0.074,1.307-0.074
			c2.414,0,4.299,0.805,4.299,3.619c0,2.816-2.363,3.57-4.802,3.57h-0.804V425.193L355.367,425.193z M358.083,441.936
			c-0.881,0-1.835-0.049-2.716-0.227v-7.518c0.704-0.049,1.232-0.049,1.811-0.049c2.563,0,5.027,0.703,5.027,3.771
			C362.204,441.031,360.119,441.936,358.083,441.936z M397.625,423.357l-1.407,2.992c0.903-0.527,2.136-0.652,3.167-0.652h4.5
			v16.189c0,0.703-0.327,1.508-1.005,1.811h6.209c-0.652-0.301-1.005-1.105-1.005-1.811v-16.24c1.685,0,3.645,0.074,4.825,0.102
			c0.98,0,2.665-1.131,3.242-2.664c-1.181,0.252-2.414,0.273-3.621,0.273H397.625L397.625,423.357z M423.14,423.357h-6.26
			c0.503,0.252,1.029,0.904,1.029,1.836v16.693c0,0.902-0.526,1.582-1.029,1.811h6.26c-0.529-0.229-1.031-0.904-1.031-1.811v-16.693
			C422.109,424.264,422.612,423.609,423.14,423.357z M377.614,433.313c2.966,0,5.63-1.658,5.63-4.877
			c0-3.844-3.996-5.078-7.189-5.078h-7.366c0.654,0.354,0.956,1.133,0.956,1.836v16.693c0,0.703-0.301,1.482-0.956,1.811h6.11
			c-0.654-0.301-0.955-1.131-0.955-1.811v-7.77c2.64,0.025,3.67,2.768,4.851,4.752c0.753,1.232,2.666,4.348,4.047,4.75
			c0.753,0.229,1.608,0.201,2.389,0.201c1.306,0,2.613-0.15,3.87-0.527C384.327,443.268,381.838,433.34,377.614,433.313z
			 M374.799,432.309c-0.327,0-0.628-0.025-0.955-0.051v-7.041c0.353-0.049,0.678-0.102,1.03-0.102c2.236,0,3.896,0.904,3.896,3.443
			C378.77,431.053,377.086,432.309,374.799,432.309z M395.563,423.357h-6.258c0.501,0.252,1.03,0.904,1.03,1.836v16.693
			c0,0.902-0.527,1.582-1.03,1.811h6.258c-0.527-0.229-1.03-0.904-1.03-1.811v-16.693
			C394.533,424.264,395.036,423.609,395.563,423.357z M460.898,423.357h-6.035c0.454,0.229,0.932,0.904,0.932,1.836v6.84
			c-1.105,0.102-2.614,0.176-4.324,0.176c-1.76,0-3.271-0.051-4.374-0.176v-6.84c0-0.93,0.452-1.607,0.905-1.836h-6.034
			c0.452,0.229,0.93,0.904,0.93,1.836v16.693c0,0.902-0.478,1.607-0.93,1.811h6.034c-0.453-0.229-0.905-0.904-0.905-1.811v-7.568
			c1.106-0.125,2.64-0.176,4.374-0.176c1.708,0,3.216,0.051,4.324,0.176v7.568c0,0.902-0.478,1.607-0.932,1.811h6.035
			c-0.454-0.229-0.906-0.904-0.906-1.811v-16.693C459.993,424.264,460.446,423.586,460.898,423.357z M430.38,427.205
			c0-1.686,1.534-2.412,3.017-2.412c1.861,0,3.872,1.205,4.675,2.893l-0.226-3.797c-1.307-0.604-3.369-0.803-4.802-0.803
			c-3.193,0-6.839,1.256-6.839,5.074c0,6.186,9.125,7.064,9.125,10.936c0,2.215-1.508,3.094-3.545,3.094
			c-2.664,0-4.802-1.836-5.832-4.197c-0.127,0.83-0.199,1.658-0.199,2.488c0,0.705,0.049,1.408,0.149,2.088
			c1.659,1.131,4.324,1.508,6.284,1.508c3.746,0,7.465-1.762,7.465-6.008C439.656,432.209,430.38,431.227,430.38,427.205z
			 M570.761,423.357c0.302,0.201,0.428,0.377,0.428,0.682c0,0.227-0.25,0.678-0.628,1.332c0,0-3.067,5.328-3.395,5.932l-3.871-6.135
			c-1.206-1.885-2.187-2.061-4.147-2.061c-1.181,0-2.94,0.326-3.52,0.555c2.109,0,3.872,2.916,4.249,3.543l4.174,6.713v7.969
			c0,0.629-0.277,1.484-0.88,1.811h5.98c-0.629-0.301-0.903-1.156-0.903-1.811v-7.943l4.826-8.447
			c0.452-0.805,1.157-1.734,2.013-2.137h-4.326V423.357z M543.512,423.357h-3.975c0.25,0.201,0.354,0.354,0.354,0.605
			c0,0.201-0.05,0.326-0.15,0.652l-3.999,11.967l-5.276-13.225l-4.803,13.727l-4.501-12.166c-0.074-0.229-0.175-0.504-0.175-0.705
			c0-0.428,0.175-0.652,0.428-0.854h-6.008c0.755,0.402,1.256,1.156,1.561,1.938l6.912,18.4h1.908l4.022-11.389l2.79,7.064
			c0.353,0.902,1.307,3.367,1.937,3.945c0.275,0.201,0.777,0.377,1.282,0.377l6.185-18.352
			C542.255,424.592,542.782,423.734,543.512,423.357z M579.384,427.205c0-1.686,1.534-2.412,3.018-2.412
			c1.859,0,3.871,1.205,4.675,2.893l-0.226-3.797c-1.308-0.604-3.37-0.803-4.802-0.803c-3.192,0-6.839,1.256-6.839,5.074
			c0,6.186,9.126,7.064,9.126,10.936c0,2.215-1.509,3.094-3.545,3.094c-2.665,0-4.803-1.836-5.834-4.197
			c-0.125,0.83-0.2,1.658-0.2,2.488c0,0.705,0.05,1.408,0.149,2.088c1.659,1.131,4.324,1.508,6.286,1.508
			c3.771,0,7.465-1.762,7.465-6.008C588.66,432.209,579.384,431.227,579.384,427.205z M559.147,442.111l-6.839-18.754h-5.279
			c0.429,0.229,0.755,0.682,0.755,1.158c0,0.102-0.024,0.174-0.05,0.25l-6.736,17.371c-0.25,0.629-0.777,1.258-1.383,1.561h4.1
			c-0.228-0.102-0.479-0.252-0.479-0.555c0-0.125,0.075-0.354,0.327-0.955c0,0,1.784-4.523,1.962-4.977
			c1.205-0.127,2.438-0.152,3.645-0.152c1.28,0,2.59,0,3.846,0.152c0.2,0.525,1.859,5.078,1.859,5.078
			c0.127,0.375,0.201,0.576,0.201,0.701c0,0.354-0.177,0.502-0.377,0.705h5.832C560.025,443.42,559.423,442.867,559.147,442.111z
			 M549.116,435.275c-0.93,0-1.885-0.025-2.815-0.127l3.094-7.918l2.865,7.918C551.226,435.275,550.172,435.275,549.116,435.275z
			 M487.678,442.111l-6.839-18.754h-5.278c0.428,0.229,0.753,0.682,0.753,1.158c0,0.102-0.026,0.174-0.05,0.25l-6.738,17.371
			c-0.252,0.629-0.779,1.258-1.383,1.561h4.098c-0.226-0.102-0.478-0.252-0.478-0.555c0-0.125,0.075-0.354,0.327-0.955
			c0,0,1.785-4.523,1.961-4.977c1.207-0.127,2.438-0.152,3.645-0.152c1.282,0,2.59,0,3.848,0.152c0.199,0.525,1.86,5.078,1.86,5.078
			c0.15,0.375,0.2,0.576,0.2,0.701c0,0.354-0.176,0.502-0.376,0.705h5.833C488.557,443.42,487.954,442.867,487.678,442.111z
			 M477.647,435.275c-0.932,0-1.887-0.025-2.815-0.127l3.092-7.918l2.866,7.918C479.759,435.275,478.703,435.275,477.647,435.275z
			 M496.351,423.357h-6.261c0.503,0.252,1.032,0.904,1.032,1.836v16.693c0,0.902-0.529,1.582-1.032,1.811h6.261
			c-0.529-0.229-1.031-0.904-1.031-1.811v-16.693C495.318,424.264,495.822,423.609,496.351,423.357z M509.121,433.313
			c2.213,0,5.129-1.658,5.129-4.877c0-3.844-3.997-5.078-7.19-5.078h-7.364c0.654,0.354,0.955,1.133,0.955,1.836v16.693
			c0,0.703-0.301,1.482-0.955,1.811h6.109c-0.653-0.301-0.957-1.131-0.957-1.811v-7.77c2.64,0,4.174,2.768,5.354,4.752
			c0.756,1.232,2.665,4.348,4.048,4.75c0.755,0.229,1.608,0.201,2.388,0.201c1.307,0,2.614-0.15,3.872-0.527
			C516.159,443.293,513.519,433.565,509.121,433.313z M505.803,432.309c-0.327,0-0.63-0.025-0.957-0.051v-7.041
			c0.353-0.049,0.68-0.102,1.032-0.102c2.236,0,3.896,0.904,3.896,3.443C509.774,431.053,508.09,432.309,505.803,432.309z"/>
		
			<linearGradient id="path3364_1_" gradientUnits="userSpaceOnUse" x1="1329.7859" y1="1019.9405" x2="1294.6201" y2="1039.6364" gradientTransform="matrix(1 0 0 1 -679.4766 -611.039)">
			<stop  offset="0" style="stop-color:#11266F"/>
			<stop  offset="1" style="stop-color:#4266AE"/>
		</linearGradient>
		<path id="path3364" fill="url(#path3364_1_)" d="M641.794,409.136c-3.566,3.377-11.07,6.379-14.637,7.691
			c-5.064,1.877-7.314,2.629-10.131,3.566c-3.188,0.938-9.569,3.002-9.569,3.002c13.133,3.939,22.515,5.062,22.515,5.062
			s4.314-1.307,11.258-5.062c3.752-1.875,5.441-3.002,6.754-4.315c0.564-0.375,1.875-1.689,2.063-3.377
			c0-0.188,0.187-0.375,0.187-0.752c0,0,0-0.186,0-0.373c-0.187-0.188-0.187-0.375-0.187-0.375s0-0.375-0.188-0.752
			c0-0.188-0.373-1.125-1.125-1.689c-0.562-0.375-1.312-1.312-4.127-2.25c-0.938-0.375-2.628-0.75-2.628-0.75L641.794,409.136
			L641.794,409.136z"/>
		
			<linearGradient id="path3366_1_" gradientUnits="userSpaceOnUse" x1="1245.9138" y1="1027.3994" x2="1326.5676" y2="997.5383" gradientTransform="matrix(1 0 0 1 -679.4766 -611.039)">
			<stop  offset="0" style="stop-color:#E0162B"/>
			<stop  offset="0.5716" style="stop-color:#FF0108"/>
			<stop  offset="0.7537" style="stop-color:#FFB8BB"/>
			<stop  offset="0.7929" style="stop-color:#FFB0B3"/>
			<stop  offset="0.8511" style="stop-color:#FF010A"/>
			<stop  offset="1" style="stop-color:#FF0000"/>
		</linearGradient>
		<path id="path3366" fill="url(#path3366_1_)" d="M650.235,414.765c0,0,0-0.375-0.188-0.562c0-0.375-0.188-0.562-0.373-0.938
			c-0.188-0.188-0.564-0.562-0.939-1.125c-0.374-0.189-0.75-0.562-1.125-0.938c-1.879-1.128-4.127-1.689-6.19-2.064
			c-3.188-0.375-6.941-0.375-7.315-0.375c-1.127,0-8.818,0-10.694,0.188c-8.631,0.189-19.323,0.189-22.139,0.189
			c-28.703,0-41.275-0.564-55.158-3.377c-11.819-2.252-18.388-4.502-18.388-4.502c10.508-0.375,71.481-3.002,82.552-3.189
			c7.316-0.188,12.383-0.376,16.51,0c2.252,0,4.127,0.189,6.567,0.751c2.252,0.374,4.314,0.938,5.443,1.313
			c2.438,0.938,4.688,2.25,5.627,3.752c0,0,0.375,0.188,0.75,0.75c0.377,0.75,0.938,1.502,1.127,1.688
			c1.502,2.438,2.252,3.753,2.438,4.313c0.375,0.562,0.562,1.127,0.752,1.689c0.373,0.375,0.373,0.75,0.373,0.938
			c0.188,0.562,0.188,1.127,0.375,1.314v0.184H650.235L650.235,414.765z"/>
	</g>
</g>
</svg>
