<?xml version="1.0" encoding="UTF-8" standalone="no"?>
<svg
   xmlns:dc="http://purl.org/dc/elements/1.1/"
   xmlns:cc="http://creativecommons.org/ns#"
   xmlns:rdf="http://www.w3.org/1999/02/22-rdf-syntax-ns#"
   xmlns:svg="http://www.w3.org/2000/svg"
   xmlns="http://www.w3.org/2000/svg"
   viewBox="0 0 315 89"
   height="89"
   width="315"
   id="svg2"
   version="1.1">
  <metadata
     id="metadata8">
    <rdf:RDF>
      <cc:Work
         rdf:about="">
        <dc:format>image/svg+xml</dc:format>
        <dc:type
           rdf:resource="http://purl.org/dc/dcmitype/StillImage" />
        <dc:title></dc:title>
      </cc:Work>
    </rdf:RDF>
  </metadata>
  <defs
     id="defs6" />
  <g
     id="g4532">
    <path
       id="path4536"
       d="M 171.82782,56.863658 C 168.96617,55.815838 167,51.737999 167,46.850777 V 44 h -8.77749 C 147.37698,44 145,42.738086 145,36.980316 c 0,-8.281824 7.195,-21.223857 17.38527,-31.2717955 5.81468,-5.73347582 8.77576,-6.8264222 9.42075,-3.4772429 0.18095,0.9395708 -2.14218,4.7668394 -5.16251,8.5050414 -6.92743,8.573945 -11.03774,16.55681 -10.21428,19.837738 0.5266,2.098135 1.19081,2.425943 4.91551,2.425943 4.88278,0 7.84559,-2.378934 9.74354,-7.823404 1.1677,-3.349647 5.70927,-6.541519 7.61736,-5.353575 0.59806,0.372338 1.60129,2.589479 2.22941,4.926979 1.09974,4.092584 1.28877,4.25 5.10349,4.25 2.1788,0 3.96146,0.382972 3.96146,0.851049 0,0.468077 -2.25,2.923653 -5,5.456835 l -5,4.605787 v 7.108906 c 0,10.467813 -1.50639,12.28183 -8.17218,9.841081 z"
       style="fill:#007c77" />
    <path
       id="path4534"
       d="M 10.802404,60.061556 C 3.5384207,58.628082 0.57469354,53.763621 0.71209075,43.5 0.94255557,26.284195 13.837321,10.457886 23.759175,15.213306 c 3.911071,1.874527 3.953626,4.456056 0.138345,8.392427 C 20.155743,27.466267 18,27.951639 18,24.933578 c 0,-1.656054 -0.535681,-2.003585 -2.697436,-1.75 -3.60887,0.423338 -7.2948884,7.564714 -7.9855918,15.471467 C 6.8792541,43.665778 7.1462709,44.999538 9.1878177,48 c 1.3416563,1.971833 3.8944853,4.042643 5.8468103,4.742828 3.952925,1.417686 11.631549,0.841319 16.63321,-1.248509 4.065317,-1.698597 4.605346,-0.03904 1.068515,3.283639 -4.601249,4.322648 -14.599233,6.731031 -21.933949,5.283598 z M 38.654988,57.171259 C 37.539209,55.938338 37,53.558745 37,49.867604 37,40.482188 44.403082,29 50.454281,29 c 3.150426,0 4.247499,1.643398 5.006729,7.5 1.054291,8.132673 1.35322,8.991229 4.516394,12.971567 C 61.639832,51.56346 63,53.677255 63,54.168889 c 0,2.08357 -3.560961,1.982901 -7.583273,-0.214379 l -4.320641,-2.360249 -3.59618,3.70287 c -3.990199,4.108576 -6.367005,4.612192 -8.844918,1.874128 z M 45.94268,49.569067 C 47.511718,47.678492 48.625663,37 47.253844,37 45.635016,37 43,43.442912 43,47.401129 c 0,3.805494 0.98275,4.529508 2.94268,2.167938 z M 303.5,57.611153 c -1.65,-0.72081 -4.44374,-2.527411 -6.20831,-4.014668 -3.17967,-2.67997 -3.2493,-2.690184 -7.80235,-1.144384 -2.52673,0.857847 -5.64237,1.296612 -6.92364,0.975034 -1.37188,-0.344322 -4.20552,0.2699 -6.89277,1.494088 C 273.16317,56.064551 269.29851,57 267.0848,57 c -3.30986,0 -4.41778,-0.531359 -6.23619,-2.990891 -1.91733,-2.593335 -2.41977,-2.808748 -3.77993,-1.620589 C 251.70061,57.077745 244.28322,58.283219 241,55 c -2,-2 -2,-2 -4.08666,0.08666 -1.54578,1.545782 -2.77701,1.914397 -4.75,1.422089 -3.84566,-0.959586 -5.56143,-2.834761 -9.56504,-10.453636 -5.26465,-10.01864 -5.98668,-10.305738 -8.56791,-3.406795 -3.0513,8.155323 -5.00263,11.097546 -8.25303,12.443903 -1.56282,0.647342 -3.01835,1.000121 -3.23452,0.783955 -0.80419,-0.804186 3.28395,-41.684004 4.37184,-43.716744 0.62213,-1.162476 2.02752,-2.5933125 3.12307,-3.1796358 2.8956,-1.549673 3.36128,0.5431053 2.58338,11.6096518 -0.82405,11.723084 -0.15644,11.938442 8.94213,2.884549 6.75829,-6.725102 12.25877,-10.783892 16.18674,-11.944154 1.81831,-0.537102 2.25,-0.27088 2.25,1.387568 0,1.28411 -1.84797,3.461392 -4.93751,5.817388 C 229.8763,22.689636 227,27.151383 227,31.241407 c 0,3.111797 5.14478,13.219869 9.01949,17.720819 L 239,52.424452 v -3.244345 c 0,-4.520718 2.25896,-9.452046 5.49636,-11.998582 3.49755,-2.751176 4.6467,-2.019421 3.26952,2.08196 C 247.16815,41.043568 246.6388,44.525 246.58955,47 c -0.0782,3.928622 0.19418,4.540317 2.145,4.817526 1.229,0.17464 3.24163,-0.38786 4.47251,-1.25 C 254.43793,49.705387 256.24488,49 257.22251,49 258.69116,49 259,48.122628 259,43.95034 c 0,-7.398171 1.96445,-10.432304 8.23704,-12.722285 4.7751,-1.743279 5.51463,-2.440439 7.97795,-7.520801 1.49325,-3.079678 3.69804,-6.125525 4.89954,-6.768549 2.11338,-1.131048 2.16217,-1.043219 1.49755,2.69608 -1.76971,9.956798 -1.87816,17.949989 -0.28533,21.030187 1.94185,3.755119 8.48348,7.260108 9.74388,5.220742 0.81752,-1.322776 1.46127,-1.198899 9.67937,1.862599 1.91743,0.714302 1.48517,-2.179628 -0.75,-5.021184 -3.6039,-4.581611 -2.26892,-10.502463 2.97998,-13.216779 6.66111,-3.444593 11.95572,-0.240917 7.97192,4.823668 -1.10224,1.401271 -2.89233,2.829688 -3.97799,3.174261 -3.22963,1.025048 -2.27818,3.791085 3.02609,8.797339 5.87068,5.540842 6.26492,7.952542 1.75,10.705342 -3.786,2.308367 -4.26077,2.342907 -8.25,0.600193 z m -27.87372,-9.163534 c 1.5933,-2.431681 1.56733,-2.694471 -0.54908,-5.557071 -1.22181,-1.65258 -2.47288,-4.554008 -2.78017,-6.447619 -0.66132,-4.075239 -1.66899,-4.331073 -3.86402,-0.981028 -2.12768,3.247246 -2.86499,9.358778 -1.54279,12.788099 1.45137,3.764354 6.32678,3.874641 8.73606,0.197619 z M 64.884977,56.333333 c -0.06326,-0.458333 -0.02498,-3.593499 0.08508,-6.967035 0.17629,-5.403709 -0.0778,-6.333324 -2.134977,-7.811 L 60.5,39.878002 65.246165,35.530063 c 6.550932,-6.001275 12.68683,-8.886236 16.121985,-7.580192 3.152447,1.198558 3.432942,4.015176 0.650608,6.533154 -1.590181,1.439093 -2.271537,1.552077 -3.451961,0.572411 -0.808895,-0.671323 -2.257559,-1.069056 -3.219253,-0.88385 -1.377074,0.2652 -2.002542,2.1145 -2.9442,8.705012 -0.730246,5.110872 -1.94097,9.366528 -3.110351,10.932788 -2.003261,2.683149 -4.211518,3.947556 -4.408016,2.523947 z m 26.502775,-2.012161 c -1.161737,-0.233294 -3.404237,-1.772716 -4.983334,-3.420938 -2.476458,-2.584866 -2.870669,-3.780462 -2.868061,-8.6985 0.0036,-6.871691 3.601027,-14.948385 7.64557,-17.16552 3.366446,-1.845417 7.291145,-0.641294 10.067943,3.088908 2.49195,3.347554 1.40596,5.639556 -4.644544,9.802412 -2.400577,1.65164 -4.642215,3.726215 -4.981419,4.610166 -0.82962,2.161955 0.903004,5.177372 3.436971,5.981622 C 97.636096,49.336664 108,44.456432 108,42.426451 c 0,-1.6781 3.66966,-1.882744 7.51882,-0.419297 4.02243,1.529325 4.9827,0.125757 2.02564,-2.96075 -1.44075,-1.503814 -2.88314,-4.358575 -3.20531,-6.343914 -0.5009,-3.086678 -0.15179,-4.043695 2.4094,-6.604887 3.54238,-3.54238 7.65064,-4.841122 9.76444,-3.086826 2.34247,1.944085 1.77086,4.114206 -2.13813,8.117376 l -3.62514,3.712479 2.45902,2.329684 c 1.35245,1.281326 4.10877,3.586368 6.12513,5.122316 C 131.35024,43.828579 133,45.933418 133,46.970052 133,49.403207 128.42213,53 125.3253,53 c -2.85244,0 -9.91432,-3.391225 -13.05745,-6.270399 l -2.23216,-2.044696 -2.03424,2.586122 c -3.90799,4.968205 -11.319443,8.113309 -16.613698,7.050145 z m 3.166099,-20.408304 c 0.369536,-0.597923 0.279832,-1.479185 -0.199343,-1.95836 -1.182681,-1.182681 -3.785623,0.538917 -2.923606,1.933689 0.873545,1.413425 2.257892,1.424361 3.122949,0.02467 z M 243.95041,29.440253 c -0.9256,-1.115287 -1.02487,-2.326349 -0.34836,-4.25 0.74054,-2.105717 1.59272,-2.690253 3.92203,-2.690253 2.51887,0 3.02541,0.431638 3.29818,2.810472 0.56575,4.934043 -3.95139,7.648716 -6.87185,4.129781 z"
       style="fill:#50004a" />
  </g>
  <text
     id="text4540"
     y="84.344833"
     x="58.965515"
     style="font-style:normal;font-weight:normal;font-size:14.66666698px;line-height:1.25;font-family:sans-serif;letter-spacing:0px;word-spacing:0px;fill:#b4b4b2;fill-opacity:0.97254902;stroke:none"
     xml:space="preserve"><tspan
       y="84.344833"
       x="58.965515"
       id="tspan4538">The Openwork Foundation</tspan></text>
</svg>
