<?xml version="1.0" encoding="UTF-8" standalone="no"?>
<!-- Created with Inkscape (http://www.inkscape.org/) -->

<svg
   xmlns:dc="http://purl.org/dc/elements/1.1/"
   xmlns:cc="http://creativecommons.org/ns#"
   xmlns:rdf="http://www.w3.org/1999/02/22-rdf-syntax-ns#"
   xmlns:svg="http://www.w3.org/2000/svg"
   xmlns="http://www.w3.org/2000/svg"
   xmlns:sodipodi="http://sodipodi.sourceforge.net/DTD/sodipodi-0.dtd"
   xmlns:inkscape="http://www.inkscape.org/namespaces/inkscape"
   id="svg2"
   version="1.1"
   inkscape:version="0.91 r13725"
   xml:space="preserve"
   width="354.33521"
   height="124.57321"
   viewBox="0 0 354.33521 124.57321"
   sodipodi:docname="giftaidtoolkit.pdf"><metadata
     id="metadata8"><rdf:RDF><cc:Work
         rdf:about=""><dc:format>image/svg+xml</dc:format><dc:type
           rdf:resource="http://purl.org/dc/dcmitype/StillImage" /><dc:title></dc:title></cc:Work></rdf:RDF></metadata><defs
     id="defs6"><clipPath
       clipPathUnits="userSpaceOnUse"
       id="clipPath18"><path
         d="M 5,842 602,842 602,-2 5,-2 5,842 Z"
         id="path20"
         inkscape:connector-curvature="0" /></clipPath><clipPath
       clipPathUnits="userSpaceOnUse"
       id="clipPath24"><path
         d="m 0.5,842.5 595,0 0,-842 -595,0 0,842 z"
         id="path26"
         inkscape:connector-curvature="0" /></clipPath><clipPath
       clipPathUnits="userSpaceOnUse"
       id="clipPath34"><path
         d="M 5.72,841 601,841 601,-0.89 5.72,-0.89 5.72,841 Z"
         id="path36"
         inkscape:connector-curvature="0"
         style="clip-rule:evenodd" /></clipPath><clipPath
       clipPathUnits="userSpaceOnUse"
       id="clipPath40"><path
         d="M 5,842 602,842 602,-2 5,-2 5,842 Z"
         id="path42"
         inkscape:connector-curvature="0" /></clipPath><clipPath
       clipPathUnits="userSpaceOnUse"
       id="clipPath46"><path
         d="m 0.5,842.5 595,0 0,-842 -595,0 0,842 z"
         id="path48"
         inkscape:connector-curvature="0" /></clipPath><clipPath
       clipPathUnits="userSpaceOnUse"
       id="clipPath56"><path
         d="M 5,842 602,842 602,-2 5,-2 5,842 Z"
         id="path58"
         inkscape:connector-curvature="0" /></clipPath><clipPath
       clipPathUnits="userSpaceOnUse"
       id="clipPath62"><path
         d="m 0.5,842.5 595,0 0,-842 -595,0 0,842 z"
         id="path64"
         inkscape:connector-curvature="0" /></clipPath></defs><sodipodi:namedview
     pagecolor="#ffffff"
     bordercolor="#666666"
     borderopacity="1"
     objecttolerance="10"
     gridtolerance="10"
     guidetolerance="10"
     inkscape:pageopacity="0"
     inkscape:pageshadow="2"
     inkscape:window-width="1853"
     inkscape:window-height="1005"
     id="namedview4"
     showgrid="false"
     fit-margin-top="0"
     fit-margin-left="0"
     fit-margin-right="0"
     fit-margin-bottom="0"
     inkscape:zoom="0.44874541"
     inkscape:cx="223.97247"
     inkscape:cy="-117.68735"
     inkscape:window-x="67"
     inkscape:window-y="29"
     inkscape:window-maximized="1"
     inkscape:current-layer="g10" /><g
     id="g10"
     inkscape:groupmode="layer"
     inkscape:label="giftaidtoolkit"
     transform="matrix(0,-1.25,-1.25,0,750.9703,653.08294)"><path
       d="m 585,830 0,0"
       style="fill:#ffffff;fill-opacity:1;fill-rule:nonzero;stroke:none"
       id="path12"
       inkscape:connector-curvature="0" /><g
       clip-path="url(#clipPath34)"
       id="g32"
       transform="translate(229.97449,172.92656)"><g
         clip-path="url(#clipPath40)"
         id="g38"><g
           clip-path="url(#clipPath46)"
           id="g44"><path
             inkscape:connector-curvature="0"
             id="path50"
             style="fill:#000000;fill-opacity:1;fill-rule:nonzero;stroke:none"
             d="m 274.729,253.177 c -0.557,0.453 -2.325,0.34 -3.239,-0.647 -0.689,-0.743 -0.816,-0.847 -1.373,-0.871 -1.027,-0.043 -1.084,-0.698 -1.07,-1.708 0.018,-1.235 0.875,-2.245 2.619,-2.37 1.746,-0.126 3.236,1.565 3.572,2.925 0.338,1.355 0.219,2.083 -0.509,2.671 z m -24.756,-24.373 c 0,0 -2.426,0.027 -4.5,-0.162 -1.862,-0.171 -5.758,-0.805 -7.018,-1.461 -1.943,-1.016 -1.943,-3.171 -0.99,-4.83 1.248,-2.172 3.582,-1.145 4.359,-0.318 0.684,0.722 1.563,2.477 4.492,3.008 1.735,0.313 9.553,0.057 12.288,-0.457 1.775,-0.333 5.529,-1.474 7.3,-2.372 1.707,-0.865 11.481,-6.078 14.762,-6.153 1.432,-0.032 2.619,1.443 2.371,3.853 -0.248,2.411 -2.178,3.01 -3.443,3.014 -1.258,0.006 -10.117,2.558 -10.52,2.69 -0.605,0.211 -4.232,0.629 -4.24,1.874 -0.018,2.922 -0.787,5.318 -2.565,7.663 -0.91,1.201 -4.082,5.279 -7.392,7.633 -1.498,1.068 -7.74,5.924 -15.193,5.375 -6.776,-0.5 -5.577,-5.241 -5.36,-6.601 0.994,-6.187 11.17,-10.537 12.418,-11.167 2.217,-1.115 1.621,-0.738 3.231,-1.589 z m 9.232,3.702 c 0,0 1.811,-2.102 1.764,-2.992 -0.02,-0.413 -1.164,0.307 -1.871,-1.137 -0.379,-0.767 -5.489,0.839 -10.393,4.014 -11.26,7.292 -10.752,10.749 -7.332,11.049 7.135,0.616 16.379,-8.82 17.832,-10.934 z m 19.645,-39.282 c -2.5,-1.282 -1.616,-3.473 -0.969,-3.846 0.64,-0.374 0.773,-0.673 1.201,-1.735 0.779,-1.95 4.279,1.417 3.293,4.62 -0.209,0.67 -1.041,0.733 -1.041,0.733 -0.734,-0.087 -1.647,0.664 -2.484,0.228 z m -39.422,6.342 c -3.289,-3.478 -1.203,-6.939 0.234,-8.721 4.393,-5.463 24.414,-16.726 24.414,-16.726 -0.67,-0.064 -23.631,4.693 -26.178,-1.667 -1.629,-4.078 6.469,-13.57 7.219,-14.657 4.326,-6.267 5.906,-2.427 5.91,-1.218 0.01,3.232 -2.33,2.65 -3.381,3.534 -1.736,1.458 -7.763,7.318 -6.164,10.187 0.866,1.545 5.967,1.164 7.143,1.01 12.154,-0.903 14.348,-1.144 17.143,-1.852 1.554,-0.397 1.513,-2.29 1.726,-3.449 2.891,-15.648 1.725,-18.455 2.676,-20.406 0.762,-1.549 4.041,-1.826 4.746,0.371 0.316,1.005 -0.449,2.278 -1.307,4.582 -0.847,2.292 -3.4,13.838 -3.652,15.536 -0.226,1.564 -0.006,1.899 0.484,2.28 0.485,0.374 6.188,-0.346 10.915,-2.589 2.046,-0.976 5.177,-1.002 5.419,2.185 0.094,1.311 -0.279,2.424 -1.396,2.922 -1.11,0.496 -11.238,1.451 -11.912,1.674 -0.666,0.226 -1.186,1.435 -2.342,1.702 -1.156,0.265 -1.877,0.081 -2.137,0.859 -0.267,0.786 -0.474,2.939 -0.687,3.825 -0.227,0.932 -2.01,1.485 -3.041,1.52 -1.031,0.031 -0.418,-1.629 -0.301,-2.431 0.133,-0.916 1.252,-3.155 -0.666,-1.563 -0.733,0.604 -17.713,11.466 -21.209,15.708 -4.018,4.881 3.881,4.532 5.228,4.41 8.057,-0.738 13.463,-4.263 14.745,-4.769 1.289,-0.498 5.109,-0.708 4.265,3.453 -0.262,1.312 -1.58,2.026 -1.957,2.084 -0.053,0.012 -0.084,0.012 -0.084,0.012 -3.771,0.418 -20.697,7.644 -25.853,2.194 z m 16.164,123.118 c -0.236,1.059 -0.662,3.172 -0.885,4.501 -0.336,2.013 -1.605,3.11 -2.883,3.034 -1.289,-0.076 -1.896,-0.517 -1.555,-2.313 0.307,-1.624 1.69,-3.01 1.694,-4.433 0,0 -12.373,2.935 -14.031,3.127 -1.657,0.191 -6.194,1.06 -8.768,-0.723 -5.729,-3.969 0.838,-11.9 1.553,-12.642 0.529,-0.545 4.924,-5.557 8.449,-7.256 1.789,-0.861 2.184,0.605 2.549,1.597 0.365,0.991 -0.266,3.088 -1.574,3.381 -2.842,0.638 -10.508,7.579 -8.971,11.015 1.814,4.049 22.146,-3.255 22.146,-3.255 0.391,-0.871 1.528,-5.282 2.602,-9.458 1.234,-4.818 4.142,-19.544 8.541,-16.22 2.152,1.626 -1.125,5.83 -1.811,7.255 -2.447,5.104 -6.041,17.599 -6.041,17.599 0,0 7.309,-1.622 8.749,-2.147 1.648,-0.603 2.726,-2.826 5.66,-3.151 3.412,-0.382 4.966,3.728 1.23,5.69 -0.767,0.406 -2.883,0.965 -2.936,1.02 -0.505,0.527 -2.318,5.062 -4.445,9.525 -0.67,1.406 -3.574,9.392 -3.555,9.407 0.061,-0.011 7.715,-2.425 14.1,-5.222 4.246,-1.861 10.156,-4.483 11.356,-9.128 1.121,-4.35 -3.41,-2.299 -4.588,-4.256 -1.493,-2.483 0.39,-4.006 2.191,-4.386 1.41,-0.298 8.811,-0.219 8.071,7.305 -0.706,7.159 -11.635,12.864 -32.057,19.917 -0.082,0.076 -3.701,5.679 -4.631,10.324 -0.459,2.297 -0.658,3.313 -1.479,3.617 -2.115,0.787 -3.654,-0.58 -3.869,-0.846 -1.58,-1.324 5.266,-11.667 5.219,-11.656 -0.279,0.211 -32.613,8.697 -32.99,8.765 -2.693,0.489 -9.793,3.225 -13.016,3.077 -1.658,-0.082 -5.109,-0.732 -4.955,-3.119 -0.328,-4.999 6.695,-4.035 7.983,-3.699 2.664,0.7 20.275,-2.891 33.255,-6.114 2.647,-0.657 6.991,-2.007 8.024,-2.242 1.754,-0.392 2.92,-1.419 3.474,-2.625 0,0 8.471,-17.97 8.422,-18.137 -0.019,10e-4 -10.228,2.872 -10.228,2.872 z m 15.019,35.916 c 0.633,0.308 2.627,1.982 1.079,4.17 -2.303,3.253 -5.487,-0.498 -7.049,-1.1 -1.557,-0.601 -2.868,-3.854 0.211,-3.379 0.445,0.069 3.927,-0.586 5.759,0.309 z m -14.912,6.13 c -0.043,2.252 -1.668,2.068 -3.09,2.54 -1.418,0.457 -14.169,4.338 -16.455,4.831 -2.283,0.495 -4.339,0.831 -7.476,0.118 -3.207,-0.725 -2.27,-4.401 -1.707,-4.791 2.515,-1.796 3.256,-0.205 5.013,-0.147 1.836,0.046 3.762,-0.457 6.248,-0.836 0.885,-0.135 4.916,-0.406 5.463,-0.539 0.59,-0.15 5.078,-1.418 7.805,-3.245 1.172,-0.782 4.26,-1.47 4.199,2.069 z m -44.619,20.934 c -0.457,0.256 -0.91,0.518 -1.359,0.789 -4.534,2.731 -8.58,6.314 -11.496,10.756 -3.948,6.017 -5.465,11.668 -5.389,17.982 0.043,3.67 0.637,7.212 2.557,10.231 1.574,2.475 4.035,2.828 5.66,2.078 2.263,-1.042 2.043,-4.294 0.744,-5.678 -3.24,-3.455 -4.496,-5.517 -4.281,-9.961 0.171,-3.494 1.294,-7.388 3.064,-10.419 10.73,-18.375 30.02,-18.207 41.643,-18.953 0.707,-0.079 0.193,0.305 -0.192,0.435 -1.955,0.66 -4.402,1.766 -7.15,3.281 -2.383,1.313 -5.865,3.814 -8.483,7.775 -1.537,2.327 -2.281,6.106 -0.546,8.767 0.632,0.965 3.935,6.606 13.773,1.825 6.19,-3.007 10.484,-9.334 11.396,-10.762 2.229,-3.49 3.289,-5.984 3.088,-8.599 -0.097,-1.332 -0.621,-1.524 -0.595,-2.514 0.662,-0.564 1.148,-0.875 1.404,-1.802 0.199,-1.245 -0.842,-2.723 -2.82,-3.292 -1.977,-0.569 -5.151,0.912 -6.678,1.286 0,0 -19.803,-1.315 -34.34,6.775 z m 39.772,1.932 c -0.399,3.707 -9.36,10.464 -12.542,11.857 -3.248,1.424 -6.382,1.938 -7.689,0.248 -2.715,-3.496 1.887,-7.113 2.957,-8.176 0.658,-0.658 5.676,-5.258 10.772,-6.414 3.365,-0.764 6.888,-1.118 6.502,2.485 z m 5.177,-133.411 c -2.5,1.484 -5.492,2.322 -8.228,2.709 -1.445,0.201 -7.723,0.436 -8.576,0.384 -0.084,0 -2.938,-0.201 -4.125,-0.529 -0.68,-0.187 -3.125,-1.353 -3.639,2.389 -0.303,2.202 5.207,2.159 6.109,2.202 1.922,0.083 8.674,-0.234 9.676,-0.438 1.025,-0.215 -0.061,0.214 -0.732,0.619 -1.563,0.933 -3.674,2.019 -5.754,3.319 -2.735,1.708 -9.25,5.517 -8.86,10.712 0.147,1.943 0.397,3.92 5.813,5.049 2.076,0.433 4.805,0.265 6.443,0.221 0.336,0.054 0.725,0.008 0.567,0.29 -4.295,1.84 -16.946,7.817 -14.102,14.568 1.313,3.127 5.35,4.668 13.233,1.216 7.683,-3.363 17.211,-11.846 17.851,-15.225 0.572,-3.012 -0.945,-3.325 -0.945,-3.325 0.56,-0.275 0.494,-2.152 -0.309,-2.563 -1.074,-0.548 -1.26,-0.915 -4.092,-0.55 -1.634,0.207 -11.855,1.725 -15.367,1.463 -1.648,-0.121 -5.701,-0.403 -5.896,-2.076 -0.35,-2.922 5.865,-6.463 6.515,-6.865 1.27,-0.787 11.84,-7.092 13.383,-7.868 1.664,-0.835 2.879,-1.363 3.938,-1.902 1.058,-0.535 1.177,-2.163 0.212,-3.579 -0.966,-1.421 -2.296,-0.706 -3.115,-0.221 z m -11.306,29.796 c 12.32,-7.865 14.214,-3.921 13.986,-3.519 -4.311,7.651 -17.287,13.478 -21.609,12.989 -5.948,-0.674 1.084,-5.293 7.623,-9.47" /></g></g></g></g></svg>