<?xml version="1.0" encoding="UTF-8" standalone="no"?>
<svg
   xmlns:dc="http://purl.org/dc/elements/1.1/"
   xmlns:cc="http://creativecommons.org/ns#"
   xmlns:rdf="http://www.w3.org/1999/02/22-rdf-syntax-ns#"
   xmlns:svg="http://www.w3.org/2000/svg"
   xmlns="http://www.w3.org/2000/svg"
   viewBox="0 0 392.25867 147.82533"
   height="147.82533"
   width="392.25867"
   xml:space="preserve"
   id="svg2"
   version="1.1"><metadata
     id="metadata8"><rdf:RDF><cc:Work
         rdf:about=""><dc:format>image/svg+xml</dc:format><dc:type
           rdf:resource="http://purl.org/dc/dcmitype/StillImage" /></cc:Work></rdf:RDF></metadata><defs
     id="defs6"><clipPath
       id="clipPath18"
       clipPathUnits="userSpaceOnUse"><path
         id="path16"
         d="M 0,110.869 H 294.194 V 0 H 0 Z" /></clipPath></defs><g
     transform="matrix(1.3333333,0,0,-1.3333333,0,147.82533)"
     id="g10"><g
       id="g12"><g
         clip-path="url(#clipPath18)"
         id="g14"><g
           transform="translate(138.4446,68.6444)"
           id="g20"><path
             id="path22"
             style="fill:#314e9f;fill-opacity:1;fill-rule:nonzero;stroke:none"
             d="m 0,0 c -3.072,-0.184 -6.098,-1.94 -7.982,-3.276 v 1.892 c 0,0.641 -0.518,1.151 -1.16,1.151 h -4.644 c -0.641,0 -1.158,-0.51 -1.158,-1.151 v -28.14 c 0,-0.641 0.517,-1.156 1.158,-1.156 h 4.644 c 0.642,0 1.16,0.515 1.16,1.156 v 19.449 c 1.048,0.873 4.292,3.308 8.158,3.648 0.594,0.053 1.054,0.552 1.054,1.152 v 4.123 c 0,0.321 -0.127,0.622 -0.366,0.837 C 0.635,-0.091 0.316,0.03 0,0 m -36.249,-17.492 c -2.731,-0.258 -4.03,-1.506 -4.03,-3.91 0,-1.478 0.409,-3.974 3.116,-3.974 3.214,0 7.581,1.214 7.627,1.227 v 7.014 z m 13.671,7.684 v -20.19 c 0,-0.337 -0.148,-0.656 -0.396,-0.874 -0.258,-0.22 -0.594,-0.319 -0.921,-0.273 -2.362,0.333 -3.487,1.072 -4.605,1.929 -0.047,-0.019 -5.275,-2.13 -9.944,-2.13 -5.624,0 -8.851,3.551 -8.851,9.754 0,6.06 2.952,8.74 10.195,9.28 l 7.564,0.609 v 1.835 c 0,2.323 -1.38,3.66 -3.785,3.66 -3.312,0 -8.04,-0.389 -10.562,-0.615 -0.314,-0.034 -0.634,0.068 -0.873,0.279 -0.233,0.204 -0.379,0.506 -0.39,0.82 l -0.151,3.86 c -0.024,0.589 0.396,1.1 0.972,1.187 2.253,0.359 7.866,1.177 11.371,1.177 7.081,0 10.376,-3.278 10.376,-10.308 M -119.191,4.71 h -2.545 c -2.841,0 -4.459,-0.212 -5.279,-0.378 V -7.696 c 1.358,-0.095 3.97,-0.234 7.486,-0.195 4.536,0.046 7.35,2.456 7.35,6.279 0,3.055 -1.842,6.322 -7.012,6.322 m 14.634,-33.768 c 0.155,-0.355 0.12,-0.766 -0.088,-1.097 -0.216,-0.33 -0.579,-0.525 -0.972,-0.525 h -5.398 c -0.454,0 -0.874,0.271 -1.053,0.688 l -6.913,15.553 c -3.439,0.024 -6.423,0.207 -8.034,0.32 v -15.405 c 0,-0.641 -0.514,-1.156 -1.153,-1.156 h -4.827 c -0.642,0 -1.159,0.515 -1.159,1.156 V 9.489 c 0,0.59 0.442,1.084 1.03,1.149 6.193,0.7 11.146,0.772 12.984,0.772 0.634,0 0.972,-0.004 0.972,-0.004 11.879,0 14.377,-7.016 14.377,-12.894 0,-4.909 -2.346,-8.457 -7.167,-10.848 z M 30.94,-0.68 c -0.213,0.284 -0.551,0.447 -0.913,0.447 h -4.512 c -0.524,0 -0.977,-0.351 -1.118,-0.856 l -6.051,-22.816 h -0.463 l -6.057,22.816 c -0.135,0.505 -0.593,0.856 -1.119,0.856 H 6.202 C 5.841,-0.233 5.504,-0.396 5.282,-0.68 5.066,-0.965 4.99,-1.331 5.078,-1.675 l 6.665,-25.586 c 0.331,-1.27 1.504,-3.419 3.827,-3.419 h 1.292 c -0.111,-0.427 -0.232,-0.885 -0.361,-1.278 l -0.059,-0.194 c -0.361,-1.179 -0.904,-2.964 -4.195,-2.964 l -5.766,0.355 c -0.326,0.025 -0.645,-0.092 -0.873,-0.325 -0.238,-0.235 -0.369,-0.553 -0.352,-0.88 l 0.141,-3.02 c 0.023,-0.509 0.381,-0.941 0.881,-1.066 1.7,-0.42 4.943,-0.91 7.611,-1.013 0.127,-0.008 0.243,-0.008 0.366,-0.008 4.349,0 7.299,2.815 8.785,8.354 1.73,6.486 3.89,14.832 5.466,20.926 0.715,2.744 1.329,5.109 1.772,6.792 l 0.868,3.32 c 0.092,0.35 0.011,0.716 -0.206,1.001 M -79.994,-15.304 c 0,6.811 -1.851,9.458 -6.591,9.458 -4.913,0 -6.654,-2.473 -6.654,-9.458 0,-6.332 1.058,-9.758 6.654,-9.758 5.509,0 6.591,3.577 6.591,9.758 m 7.075,0 c 0,-11.092 -4.216,-16.042 -13.666,-16.042 -9.496,0 -13.732,4.95 -13.732,16.042 0,10.93 4.236,15.804 13.732,15.804 9.322,0 13.666,-5.017 13.666,-15.804 m 21.956,-10.432 0.199,-3.826 c 0.028,-0.572 -0.373,-1.085 -0.938,-1.192 -1.618,-0.299 -3.843,-0.662 -5.236,-0.662 -7.015,0 -9.152,2.685 -9.152,11.473 v 13.427 h -2.689 c -0.641,0 -1.159,0.52 -1.159,1.16 v 3.972 c 0,0.641 0.518,1.151 1.159,1.151 h 2.689 V 4.49 c 0,0.537 0.361,1.001 0.877,1.126 l 4.648,1.132 c 0.344,0.082 0.706,0.006 0.986,-0.212 0.278,-0.223 0.447,-0.554 0.447,-0.909 v -5.86 h 7.078 c 0.644,0 1.155,-0.51 1.155,-1.151 v -3.972 c 0,-0.64 -0.511,-1.16 -1.155,-1.16 h -7.078 v -12.448 c 0,-4.308 0.152,-5.8 3.172,-5.8 1.114,0 2.855,0.08 3.792,0.125 0.623,0.014 1.178,-0.455 1.205,-1.097" /></g><g
           transform="translate(216.2026,90.2168)"
           id="g24"><path
             id="path26"
             style="fill:#f7a62c;fill-opacity:1;fill-rule:nonzero;stroke:none"
             d="M 0,0 0.186,-0.318 0.87,-1.5 2.29,-0.754 c 0.132,0.066 0.208,0.231 0.233,0.436 C 2.55,0.323 2.087,1.191 1.415,0.787 0.891,0.512 0.572,0.323 0,0 M -1.481,-0.318 -1.856,0.355 C -0.872,0.979 0.186,1.521 1.207,2.067 2.407,2.729 4.102,1.123 3.983,-0.318 3.96,-0.572 3.89,-0.802 3.738,-1.035 L 6.194,-2.822 C 5.732,-3.04 5.382,-3.225 4.829,-3.464 l -2.15,1.572 -1.187,-0.635 1.264,-2.09 C 2.267,-4.929 1.969,-5.123 1.398,-5.455 Z m 32.469,-67.36 2.237,-6.387 c 0.435,0.151 0.902,0.283 1.343,0.477 l -2.171,6.358 c -0.594,-0.203 -0.869,-0.284 -1.409,-0.448 m -8.944,-6.028 -0.524,1.292 -0.53,1.398 -0.46,-1.398 -0.454,-1.377 z m 0.884,1.292 1.464,-3.549 c -0.478,-0.02 -0.924,-0.069 -1.353,-0.118 l -0.451,1.146 -2.925,-0.081 -0.335,-1.198 c -0.468,0.04 -0.905,0.054 -1.368,0.054 l 1.261,3.746 0.899,2.843 0.043,0.09 1.492,0.066 0.076,-0.179 z m 7.345,74.656 1.512,-0.488 c 0.414,-0.119 0.96,0.529 0.96,1.094 0,0.269 -0.094,0.507 -0.453,0.586 -0.56,0.217 -0.942,0.313 -1.552,0.467 L 30.428,2.848 Z m -0.927,-3.531 c -0.542,0.158 -0.943,0.224 -1.539,0.394 l 1.098,3.743 0.803,2.668 C 30.865,5.228 31.965,4.854 33.065,4.495 33.688,4.303 34.022,3.598 34.086,2.848 34.127,1.829 33.621,0.72 32.591,0.489 l 0.4,-3.016 c -0.483,0.2 -0.84,0.35 -1.375,0.559 l -0.35,2.637 -1.291,0.396 z M 8.792,-69.204 c -0.041,0.189 -0.118,0.342 -0.35,0.448 l -1.694,0.624 -0.382,-1.072 -0.137,-0.39 -0.01,-0.025 1.544,-0.578 c 0.423,-0.188 0.832,0.189 0.979,0.603 0.05,0.113 0.093,0.254 0.05,0.39 m 1.269,0 v -0.367 c -0.104,-0.902 -0.715,-1.817 -1.706,-1.932 l 0.23,-3.148 c -0.461,0.106 -0.98,0.258 -1.47,0.467 l -0.053,2.961 -1.33,0.569 -1.079,-2.614 c -0.436,0.145 -0.871,0.284 -1.298,0.493 l 1.367,3.181 0.163,0.39 1.112,2.624 3.029,-1.168 c 0.674,-0.242 0.984,-0.841 1.035,-1.456 m 19.325,0.956 c -1.966,-0.431 -3.48,-0.79 -5.432,-1.092 l 0.181,-1.133 c 0.722,0.115 1.381,0.2 2.144,0.296 l 0.984,-5.456 1.447,0.273 -1.174,5.441 c 0.744,0.185 1.431,0.373 2.172,0.545 z m 7.389,63.839 1.461,2.814 3.944,1.833 C 41.765,0.535 41.317,0.743 40.9,1.018 L 38.184,-0.22 37.682,2.729 c -0.566,0.269 -0.907,0.388 -1.497,0.626 l 0.789,-4.289 -1.463,-2.78 z m 14.789,-1.722 c -0.622,0.762 -1.654,0.649 -1.951,0.118 l -4.59,-4.612 c -0.673,-0.7 -0.607,-1.724 0.089,-2.222 6.929,-7.67 9.824,-17.218 7.552,-29.04 -0.051,-0.774 0.437,-1.398 1.042,-1.572 l 6.347,-1.841 c 0.845,-0.239 1.386,0.275 1.567,0.998 3.265,14.555 -1.207,28.864 -10.056,38.171 m 7.342,-42.56 -6.352,2.169 c -0.333,0.123 -1.199,0.123 -1.653,-0.994 -5.131,-12.302 -17.072,-20.723 -30.9,-20.723 -13.846,0 -26.009,8.614 -30.919,20.915 -0.365,0.925 -1.257,0.925 -1.595,0.802 l -6.317,-2.169 c -0.686,-0.247 -1.098,-0.855 -0.738,-1.733 6.205,-15.836 21.636,-27.015 39.569,-27.015 17.926,0 33.427,11.256 39.654,27.082 0.322,0.828 -0.068,1.419 -0.749,1.666 m -78.772,3.391 6.337,1.841 c 0.593,0.174 1.082,0.798 1.035,1.572 -2.275,11.802 0.615,21.37 7.534,29.04 0.7,0.498 0.774,1.522 0.105,2.222 l -4.606,4.631 c -0.448,0.512 -1.261,0.512 -1.96,-0.2 -8.829,-9.292 -13.286,-23.553 -10.016,-38.133 0.181,-0.698 0.733,-1.212 1.571,-0.973 m 63.569,29.505 c 0.018,0.283 -0.156,0.64 -0.551,1.029 -5.073,5.366 -10.283,8.368 -17.429,10.067 -0.401,0.104 -0.866,0.198 -1.176,-0.076 -0.32,-0.256 -0.412,-0.75 -0.347,-1.491 l 1.177,-16.533 c 0.038,-0.625 0.321,-1.121 0.738,-1.374 0.458,-0.26 1.007,-0.211 1.576,0.063 l 14.889,7.185 c 0.477,0.232 1.021,0.484 1.123,0.994 0,0.031 0.018,0.072 0,0.136 m 3.01,-29.549 c 0.442,-0.287 0.956,-0.634 1.421,-0.473 0.316,0.096 0.588,0.443 0.764,1.067 2.084,7.066 2.084,13.103 0,20.086 -0.129,0.438 -0.333,0.891 -0.699,1.055 -0.372,0.133 -0.838,-0.021 -1.507,-0.474 l -13.655,-9.284 c -0.529,-0.355 -0.798,-0.84 -0.798,-1.34 0,-0.499 0.269,-0.983 0.798,-1.333 z M 24.507,-64.558 c 0.251,-0.199 0.665,-0.257 1.3,-0.098 7.103,1.705 12.313,4.715 17.39,10.043 0.302,0.351 0.635,0.712 0.536,1.112 -0.093,0.384 -0.42,0.731 -1.112,1.058 l -14.893,7.227 c -0.565,0.266 -1.114,0.266 -1.568,0.028 -0.437,-0.275 -0.704,-0.744 -0.745,-1.397 L 24.211,-63.07 c -0.011,-0.541 -0.076,-1.156 0.296,-1.488 m -4.506,19.095 c 5.879,0 10.66,4.772 10.66,10.652 0,5.879 -4.781,10.658 -10.66,10.68 -5.878,0 -10.655,-4.801 -10.655,-10.68 0,-5.88 4.777,-10.652 10.655,-10.652 m -23.423,-8.314 c 0,-0.282 0.192,-0.634 0.551,-1.008 5.121,-5.386 10.306,-8.383 17.427,-10.055 0.456,-0.137 0.902,-0.205 1.218,0.042 0.322,0.24 0.414,0.734 0.36,1.514 0,0.024 -1.211,16.53 -1.211,16.53 -0.052,0.626 -0.288,1.103 -0.726,1.354 -0.445,0.261 -0.997,0.261 -1.591,-0.009 L -2.248,-52.64 c -0.517,-0.241 -1.08,-0.514 -1.157,-1 0,-0.031 -0.017,-0.095 -0.017,-0.137 m -0.215,37.719 c 0.062,-0.498 0.628,-0.752 1.123,-0.984 l 14.869,-7.224 c 0.592,-0.283 1.141,-0.283 1.589,-0.049 0.419,0.274 0.691,0.75 0.729,1.383 l 1.201,16.494 c 0.065,0.798 -0.047,1.264 -0.335,1.509 -0.313,0.271 -0.778,0.194 -1.226,0.112 -7.127,-1.714 -12.321,-4.725 -17.439,-10.064 -0.414,-0.468 -0.606,-0.86 -0.511,-1.177 m -2.986,-8.134 c -0.486,0.314 -1.004,0.673 -1.427,0.485 -0.345,-0.104 -0.596,-0.466 -0.777,-1.053 -2.067,-7.091 -2.067,-13.105 0,-20.106 0.14,-0.455 0.297,-0.909 0.712,-1.024 0.339,-0.141 0.839,0 1.492,0.45 l 13.644,9.296 c 0.507,0.341 0.815,0.824 0.815,1.311 0,0.528 -0.308,0.992 -0.815,1.349 z m -0.299,20.648 4.408,-4.91 c 0.616,-0.662 1.293,-0.581 2.184,0.116 5.57,4.368 12.716,6.953 20.331,6.953 7.621,0 14.772,-2.575 20.395,-6.953 0.88,-0.65 1.538,-0.778 2.184,-0.116 l 4.41,4.91 c 0.499,0.542 0.499,1.291 -0.458,2.091 -7.393,5.756 -16.517,9.308 -26.55,9.308 -9.972,0 -19.228,-3.552 -26.489,-9.334 -0.95,-0.774 -0.908,-1.523 -0.415,-2.065 M 73.7,-34.851 c 0,-0.625 -0.028,-1.254 -0.098,-1.755 l -0.018,-0.135 -0.144,-0.075 c -2.282,-1.358 -5.23,-2.131 -8.187,-2.212 -0.07,-0.375 -0.391,-3.045 -0.446,-3.421 2.757,-0.795 5.429,-2.301 7.293,-4.227 l 0.076,-0.12 v -0.122 c -0.146,-1.051 -0.519,-2.461 -0.931,-3.377 l -0.048,-0.143 -0.134,-0.022 c -2.585,-0.745 -5.63,-0.716 -8.448,-0.019 -0.134,-0.35 -1.176,-2.832 -1.282,-3.192 2.47,-1.561 4.653,-3.706 5.881,-5.996 l 0.065,-0.128 -0.04,-0.134 c -0.386,-0.911 -1.107,-2.23 -1.753,-3.022 l -0.069,-0.119 h -0.164 c -2.638,-0.031 -5.585,0.752 -8.157,2.184 -0.234,-0.307 -1.951,-2.576 -2.184,-2.882 2.026,-2.087 3.563,-4.733 4.186,-7.343 l 0.04,-0.136 -0.075,-0.095 c -0.588,-0.799 -1.671,-1.857 -2.456,-2.491 l -0.092,-0.081 -0.195,0.038 c -2.538,0.677 -5.221,2.214 -7.306,4.229 -0.31,-0.233 -2.438,-1.896 -2.755,-2.133 1.363,-2.496 2.191,-5.368 2.191,-7.963 v -0.361 l -0.158,-0.09 c -0.785,-0.632 -2.091,-1.388 -3.022,-1.769 l -0.093,-0.039 -0.154,0.05 c -2.286,1.331 -4.475,3.501 -5.972,5.989 -0.361,-0.16 -2.952,-1.268 -3.306,-1.423 0.354,-1.386 0.564,-2.836 0.604,-4.269 0,-1.447 -0.25,-2.893 -0.604,-4.2 l -0.019,-0.13 -0.139,-0.076 c -0.866,-0.361 -2.329,-0.723 -3.348,-0.901 l -0.156,-0.022 -0.088,0.11 c -1.968,1.872 -3.475,4.534 -4.267,7.316 -0.35,-0.026 -3.035,-0.39 -3.413,-0.469 -0.047,-2.917 -0.847,-5.876 -2.236,-8.168 l -0.075,-0.12 -0.158,-0.02 c -0.932,-0.142 -2.425,-0.142 -3.442,0 l -0.125,0.02 -0.089,0.12 c -1.344,2.292 -2.149,5.251 -2.213,8.168 -0.401,0.039 -3.229,0.443 -3.622,0.469 -0.773,-2.764 -2.294,-5.412 -4.209,-7.307 l -0.103,-0.097 -0.158,0.024 c -1.05,0.154 -2.429,0.558 -3.353,0.941 l -0.112,0.055 -0.046,0.118 c -0.391,1.303 -0.592,2.764 -0.592,4.211 0,1.419 0.201,2.841 0.562,4.227 -0.361,0.155 -2.807,1.146 -3.16,1.305 -1.514,-2.53 -3.698,-4.728 -6.004,-6.01 l -0.121,-0.069 -0.148,0.039 c -0.955,0.427 -2.212,1.149 -3.026,1.759 l -0.1,0.1 v 0.274 c 0,2.627 0.8,5.52 2.171,8.05 -0.303,0.235 -2.585,1.969 -2.898,2.204 -2.091,-2.015 -4.752,-3.534 -7.324,-4.192 l -0.133,-0.041 -0.14,0.091 c -0.787,0.635 -1.799,1.657 -2.435,2.46 l -0.086,0.139 0.038,0.135 c 0.684,2.594 2.224,5.241 4.226,7.299 -0.228,0.31 -1.956,2.549 -2.2,2.884 -2.544,-1.426 -5.519,-2.251 -8.157,-2.183 h -0.141 l -0.091,0.091 c -0.617,0.816 -1.355,2.12 -1.752,3.045 l -0.06,0.138 0.06,0.123 c 1.328,2.326 3.499,4.472 5.978,5.959 -0.161,0.381 -1.218,2.88 -1.396,3.233 -2.818,-0.702 -5.881,-0.723 -8.459,0 l -0.125,0.039 -0.076,0.116 c -0.347,0.869 -0.73,2.332 -0.888,3.362 l -0.028,0.16 0.093,0.122 c 1.875,1.911 4.51,3.424 7.331,4.259 -0.032,0.394 -0.446,3.236 -0.488,3.629 -2.942,0.039 -5.902,0.799 -8.204,2.166 l -0.115,0.076 -0.011,0.16 c -0.065,0.477 -0.082,1.101 -0.082,1.734 0,0.617 0.017,1.223 0.082,1.739 l 0.011,0.158 0.115,0.064 c 2.302,1.357 5.262,2.142 8.204,2.187 0.062,0.388 0.411,3.15 0.456,3.523 -2.789,0.799 -5.45,2.326 -7.34,4.231 l -0.079,0.093 0.027,0.147 c 0.121,1.063 0.523,2.482 0.916,3.363 l 0.045,0.128 0.138,0.04 c 2.545,0.75 5.624,0.729 8.454,0.035 0.157,0.344 1.189,2.835 1.345,3.21 -2.498,1.511 -4.692,3.661 -5.996,5.983 l -0.065,0.148 0.065,0.139 c 0.409,0.931 1.147,2.193 1.726,2.985 l 0.095,0.119 h 0.159 c 2.671,0.04 5.616,-0.777 8.157,-2.185 0.238,0.285 1.97,2.629 2.207,2.941 -2.017,2.1 -3.543,4.733 -4.202,7.342 l -0.028,0.112 0.055,0.115 c 0.646,0.809 1.715,1.86 2.498,2.476 l 0.125,0.078 0.118,-0.023 c 2.625,-0.671 5.271,-2.233 7.332,-4.237 0.3,0.238 2.364,1.829 2.67,2.061 -1.42,2.484 -2.213,5.38 -2.213,7.953 v 0.388 l 0.131,0.09 c 0.772,0.605 2.082,1.356 3.016,1.736 l 0.098,0.062 0.157,-0.068 c 2.298,-1.3 4.46,-3.476 5.973,-5.967 0.362,0.137 3.045,1.302 3.412,1.449 -0.35,1.388 -0.569,2.826 -0.547,4.252 0,1.482 0.18,2.893 0.57,4.194 l 0.019,0.161 0.14,0.036 c 0.865,0.363 2.309,0.752 3.324,0.907 l 0.163,0.021 0.117,-0.102 c 1.914,-1.862 3.44,-4.527 4.246,-7.339 0.391,0.041 3.212,0.396 3.589,0.464 0.061,2.895 0.853,5.852 2.236,8.149 l 0.059,0.12 0.145,0.04 c 1.01,0.119 2.498,0.119 3.475,0 l 0.13,-0.04 0.081,-0.12 c 1.391,-2.297 2.196,-5.254 2.196,-8.122 0.423,-0.095 3.178,-0.45 3.571,-0.491 0.823,2.812 2.337,5.457 4.264,7.326 l 0.087,0.094 0.128,-0.039 c 1.05,-0.116 2.471,-0.505 3.383,-0.904 l 0.112,-0.045 0.045,-0.158 C 36.185,15 36.374,13.596 36.374,12.137 36.349,10.698 36.14,9.247 35.79,7.855 c 0.35,-0.142 3.029,-1.262 3.402,-1.419 1.484,2.491 3.621,4.65 5.944,5.967 l 0.134,0.068 0.139,-0.062 c 0.921,-0.391 2.209,-1.131 3.001,-1.754 l 0.117,-0.072 v -0.362 c 0,-2.639 -0.818,-5.522 -2.197,-7.979 0.296,-0.232 2.509,-1.962 2.841,-2.218 2.084,2.025 4.733,3.574 7.344,4.216 l 0.116,0.063 0.114,-0.121 C 57.531,3.598 58.591,2.496 59.191,1.706 L 59.302,1.589 59.256,1.456 c -0.665,-2.61 -2.237,-5.259 -4.24,-7.331 0.234,-0.319 1.899,-2.513 2.155,-2.829 2.596,1.396 5.532,2.196 8.192,2.147 h 0.123 l 0.086,-0.117 C 66.218,-7.5 66.959,-8.78 67.32,-9.66 l 0.086,-0.169 -0.086,-0.128 c -1.322,-2.303 -3.494,-4.437 -5.987,-5.958 0.152,-0.378 1.166,-2.879 1.359,-3.229 2.794,0.704 5.867,0.719 8.412,0 l 0.151,-0.03 0.059,-0.147 c 0.355,-0.884 0.769,-2.321 0.904,-3.378 l 0.021,-0.129 -0.104,-0.104 c -1.869,-1.937 -4.53,-3.452 -7.328,-4.243 0.055,-0.385 0.404,-3.115 0.47,-3.503 2.945,-0.064 5.881,-0.852 8.163,-2.203 l 0.144,-0.086 0.018,-0.139 c 0.07,-0.497 0.098,-1.101 0.098,-1.745 m -30.06,-25.32 2.795,-3.013 -4.691,1.384 c -0.391,-0.297 -0.653,-0.4 -0.998,-0.701 l 4.082,-5.489 c 0.349,0.272 0.709,0.601 1.035,0.88 l -2.477,3.302 4.738,-1.428 c 0.326,0.283 0.791,0.602 1.11,1.003 l -4.725,4.997 c -0.253,-0.273 -0.543,-0.632 -0.869,-0.935 m -3.244,-8.027 c 0,0.404 -0.103,0.765 -0.296,1.113 -0.56,1.044 -1.888,1.38 -2.922,0.786 -0.73,-0.391 -1.102,-1.134 -1.102,-1.899 0.023,-0.35 0.109,-0.742 0.314,-1.072 0.058,-0.104 0.128,-0.211 0.232,-0.324 0.651,-0.776 1.797,-0.957 2.677,-0.445 0.241,0.12 0.435,0.277 0.59,0.445 0.325,0.39 0.507,0.915 0.507,1.396 m 0.761,1.68 c 0.287,-0.503 0.427,-1.086 0.45,-1.68 0,-0.465 -0.099,-0.941 -0.29,-1.373 -0.315,-0.626 -0.78,-1.186 -1.428,-1.56 -1.577,-0.922 -3.618,-0.372 -4.575,1.251 -0.034,0.092 -0.077,0.195 -0.14,0.309 -0.192,0.432 -0.286,0.908 -0.326,1.373 0.04,1.195 0.623,2.297 1.693,2.918 1.603,0.908 3.673,0.365 4.616,-1.238 m 7.061,8.98 0.796,-1.259 0.728,-1.269 0.983,1.269 0.257,0.315 z m -0.765,1.539 6.718,-2.207 c -0.156,-0.199 -0.282,-0.391 -0.424,-0.591 -0.116,-0.151 -0.257,-0.304 -0.349,-0.501 l -1.177,0.424 -1.834,-2.291 0.67,-1.05 c -0.274,-0.312 -0.582,-0.65 -0.931,-0.995 l -2.661,4.413 -0.984,1.626 z m 7.442,0.994 -4.935,2.718 -0.633,-1.137 5.923,-3.306 2.281,4.09 -1.016,0.545 z m -39.021,-14.265 -0.492,-4.107 -1.973,4.504 c -0.462,0.091 -0.751,0.21 -1.216,0.284 l -1.549,-6.643 c 0.478,-0.128 0.938,-0.18 1.432,-0.265 l 0.829,4.081 2,-4.547 c 0.454,-0.069 0.969,-0.211 1.496,-0.197 l 0.742,6.862 c -0.389,0.021 -0.851,-0.042 -1.269,0.028 m -0.229,74.511 0.594,-5.503 1.445,0.151 -0.566,5.463 2.187,0.135 -0.084,1.226 C 16.78,6.573 15.774,6.474 13.358,6.113 L 13.52,4.949 Z M 22.34,2.242 C 23.074,2.207 23.755,2.125 24.443,2.027 L 24.081,3.434 23.627,4.883 22.946,3.434 Z m -1.117,-2.289 c -0.564,0.005 -0.825,0.005 -1.379,0.005 l 1.676,3.476 1.519,3.159 1.508,-0.157 0.792,-3.002 1.095,-4.034 c -0.507,0.094 -0.901,0.17 -1.38,0.199 l -0.39,1.265 C 23.669,1.018 22.769,1.065 21.846,1.106 Z M 7.228,1.615 c 0.091,-1.196 1.152,-2.069 2.303,-1.97 1.137,0.116 1.986,1.024 1.986,2.167 0.04,0.057 0,0.122 0,0.198 C 11.418,3.213 10.383,4.056 9.183,3.944 8.043,3.859 7.186,2.956 7.228,1.812 Z M 5.997,1.496 v 0.316 c -0.035,1.74 1.299,3.173 3.05,3.312 1.852,0.18 3.497,-1.18 3.654,-3.043 V 1.812 c 0,-1.736 -1.313,-3.222 -3.094,-3.385 -1.799,-0.16 -3.452,1.196 -3.61,3.069 M 20.12,-41.245 c 3.507,0 6.393,2.882 6.393,6.394 0,2.917 -2.03,5.454 -4.823,6.151 -0.035,0.287 -0.112,1.621 -0.112,1.621 h -3.224 c 0,0 -0.075,-1.449 -0.101,-1.737 -2.677,-0.812 -4.482,-3.253 -4.482,-6.035 0,-3.512 2.883,-6.394 6.349,-6.394 m -0.119,-3.179 c -5.288,0 -9.607,4.337 -9.607,9.613 0,5.313 4.319,9.628 9.607,9.628 5.321,0 9.6,-4.315 9.6,-9.628 0,-5.299 -4.301,-9.613 -9.6,-9.613 M 1.077,-65.357 c 0.915,-0.498 1.811,-1.018 2.813,-1.492 l 0.6,0.994 c -1.387,0.717 -2.688,1.536 -3.855,2.344 l -3.826,-5.614 c 1.451,-0.961 2.777,-1.764 4.268,-2.624 l 0.617,0.992 -3.086,1.817 1.042,1.465 2.044,-1.229 0.596,0.956 c -0.657,0.359 -1.341,0.777 -2.058,1.215 z m -7.65,8.328 -3.145,-2.716 1.603,4.657 c -0.284,0.399 -0.415,0.677 -0.712,1.044 l -5.636,-3.824 c 0.252,-0.379 0.561,-0.729 0.828,-1.119 l 3.389,2.348 -1.59,-4.693 c 0.275,-0.311 0.553,-0.785 0.942,-1.102 l 5.215,4.473 c -0.29,0.309 -0.638,0.584 -0.894,0.932 m -3.725,5.415 -5.805,-3.391 c 0.208,-0.406 0.431,-0.883 0.685,-1.275 l 5.818,3.399 c -0.284,0.513 -0.444,0.786 -0.698,1.267 m 7.172,-10.562 -3.579,-4.245 -1.114,0.967 3.699,4.122 c -0.586,0.543 -1.034,1.031 -1.601,1.537 l 0.824,0.827 c 1.408,-1.333 2.649,-2.364 4.204,-3.617 l -0.714,-0.911 c -0.566,0.445 -1.149,0.87 -1.719,1.32" /></g></g></g></g></svg>